<?xml version="1.0" encoding="utf-8"?>
<!-- Generator: Adobe Illustrator 24.1.0, SVG Export Plug-In . SVG Version: 6.00 Build 0)  -->
<svg version="1.1" id="Layer_1" xmlns="http://www.w3.org/2000/svg" xmlns:xlink="http://www.w3.org/1999/xlink" x="0px" y="0px"
	 viewBox="0 0 999.97 999.97" style="enable-background:new 0 0 999.97 999.97;" xml:space="preserve">
<style type="text/css">
	.st0{fill:#243644;}
	.st1{fill:url(#SVGID_1_);}
	.st2{fill:url(#SVGID_2_);}
	.st3{fill:url(#SVGID_3_);}
	.st4{opacity:0.25;fill:url(#SVGID_4_);}
	.st5{opacity:0.25;fill:url(#SVGID_5_);}
	.st6{opacity:0.25;}
	.st7{fill:url(#SVGID_6_);}
	.st8{fill:url(#SVGID_7_);}
	.st9{fill:url(#SVGID_8_);}
	.st10{fill:url(#SVGID_9_);}
	.st11{opacity:0.25;fill:url(#SVGID_10_);}
	.st12{opacity:0.25;fill:url(#SVGID_11_);}
	.st13{fill:url(#SVGID_12_);}
	.st14{fill:url(#SVGID_13_);}
	.st15{fill:url(#SVGID_14_);}
	.st16{fill:url(#SVGID_15_);}
	.st17{fill:url(#SVGID_16_);}
	.st18{fill:url(#SVGID_17_);}
	.st19{opacity:0.25;fill:url(#SVGID_18_);}
	.st20{opacity:0.25;fill:url(#SVGID_19_);}
	.st21{fill:url(#SVGID_20_);}
	.st22{fill:url(#SVGID_21_);}
	.st23{fill:url(#SVGID_22_);}
	.st24{fill:url(#SVGID_23_);}
	.st25{opacity:0.25;fill:url(#SVGID_24_);}
	.st26{opacity:0.25;fill:url(#SVGID_25_);}
	.st27{fill:url(#SVGID_26_);}
	.st28{fill:url(#SVGID_27_);}
	.st29{fill:url(#SVGID_28_);}
	.st30{fill:url(#SVGID_29_);}
	.st31{fill:url(#SVGID_30_);}
	.st32{fill:url(#SVGID_31_);}
	.st33{opacity:0.25;fill:url(#SVGID_32_);}
	.st34{opacity:0.25;fill:url(#SVGID_33_);}
	.st35{fill:url(#SVGID_34_);}
	.st36{fill:url(#SVGID_35_);}
	.st37{fill:url(#SVGID_36_);}
	.st38{fill:url(#SVGID_37_);}
	.st39{opacity:0.25;fill:url(#SVGID_38_);}
	.st40{opacity:0.25;fill:url(#SVGID_39_);}
	.st41{fill:url(#SVGID_40_);}
	.st42{fill:url(#SVGID_41_);}
	.st43{fill:url(#SVGID_42_);}
	.st44{fill:url(#SVGID_43_);}
	.st45{fill:#FFFFFF;}
	.st46{opacity:0.25;fill:url(#SVGID_44_);}
	.st47{opacity:0.25;fill:url(#SVGID_45_);}
	.st48{fill:url(#SVGID_46_);}
	.st49{fill:url(#SVGID_47_);}
	.st50{fill:url(#SVGID_48_);}
	.st51{fill:url(#SVGID_49_);}
	.st52{opacity:0.25;fill:url(#SVGID_50_);}
	.st53{opacity:0.25;fill:url(#SVGID_51_);}
	.st54{opacity:0.25;fill:url(#SVGID_52_);}
	.st55{opacity:0.25;fill:url(#SVGID_53_);}
	.st56{fill:url(#SVGID_54_);}
	.st57{fill:url(#SVGID_55_);}
	.st58{fill:url(#SVGID_56_);}
	.st59{fill:url(#SVGID_57_);}
	.st60{opacity:0.25;fill:url(#SVGID_58_);}
	.st61{opacity:0.25;fill:url(#SVGID_59_);}
	.st62{opacity:0.25;fill:url(#SVGID_60_);}
	.st63{opacity:0.25;fill:url(#SVGID_61_);}
	.st64{fill:url(#SVGID_62_);}
	.st65{fill:url(#SVGID_63_);}
	.st66{fill:url(#SVGID_64_);}
	.st67{fill:url(#SVGID_65_);}
	.st68{opacity:0.25;fill:url(#SVGID_66_);}
	.st69{opacity:0.25;fill:url(#SVGID_67_);}
	.st70{fill:url(#SVGID_68_);}
	.st71{fill:url(#SVGID_69_);}
	.st72{fill:url(#SVGID_70_);}
	.st73{fill:url(#SVGID_71_);}
	.st74{fill:url(#SVGID_72_);}
	.st75{fill:url(#SVGID_73_);}
	.st76{fill:url(#SVGID_74_);}
	.st77{fill:url(#SVGID_75_);}
	.st78{opacity:0.25;fill:url(#SVGID_76_);}
	.st79{opacity:0.25;fill:url(#SVGID_77_);}
	.st80{fill:url(#SVGID_78_);}
	.st81{fill:url(#SVGID_79_);}
	.st82{fill:url(#SVGID_80_);}
	.st83{fill:url(#SVGID_81_);}
	.st84{opacity:0.25;fill:url(#SVGID_82_);}
	.st85{opacity:0.25;fill:url(#SVGID_83_);}
	.st86{fill:url(#SVGID_84_);}
	.st87{fill:url(#SVGID_85_);}
	.st88{fill:url(#SVGID_86_);}
	.st89{fill:url(#SVGID_87_);}
	.st90{fill:url(#SVGID_88_);}
	.st91{fill:url(#SVGID_89_);}
	.st92{fill:url(#SVGID_90_);}
	.st93{fill:url(#SVGID_91_);}
	.st94{fill:url(#SVGID_92_);}
	.st95{fill:url(#SVGID_93_);}
	.st96{fill:url(#SVGID_94_);}
	.st97{fill:url(#SVGID_95_);}
	.st98{opacity:0.25;fill:url(#SVGID_96_);}
	.st99{opacity:0.25;fill:url(#SVGID_97_);}
	.st100{fill:url(#SVGID_98_);}
	.st101{fill:url(#SVGID_99_);}
	.st102{fill:url(#SVGID_100_);}
	.st103{fill:url(#SVGID_101_);}
	.st104{opacity:0.25;fill:url(#SVGID_102_);}
	.st105{opacity:0.25;fill:url(#SVGID_103_);}
	.st106{fill:url(#SVGID_104_);}
	.st107{fill:url(#SVGID_105_);}
	.st108{fill:url(#SVGID_106_);}
	.st109{fill:url(#SVGID_107_);}
	.st110{fill:url(#SVGID_108_);}
	.st111{fill:url(#SVGID_109_);}
	.st112{fill:url(#SVGID_110_);}
	.st113{fill:url(#SVGID_111_);}
	.st114{fill:url(#SVGID_112_);}
	.st115{fill:url(#SVGID_113_);}
	.st116{fill:url(#SVGID_114_);}
	.st117{opacity:0.25;fill:url(#SVGID_115_);}
	.st118{opacity:0.25;fill:url(#SVGID_116_);}
	.st119{fill:url(#SVGID_117_);}
	.st120{fill:url(#SVGID_118_);}
	.st121{fill:url(#SVGID_119_);}
	.st122{fill:url(#SVGID_120_);}
	.st123{opacity:0.25;fill:url(#SVGID_121_);}
	.st124{opacity:0.25;fill:url(#SVGID_122_);}
	.st125{opacity:0.25;fill:url(#SVGID_123_);}
	.st126{opacity:0.25;fill:url(#SVGID_124_);}
	.st127{fill:url(#SVGID_125_);}
	.st128{fill:url(#SVGID_126_);}
	.st129{fill:url(#SVGID_127_);}
	.st130{fill:url(#SVGID_128_);}
	.st131{opacity:0.25;fill:url(#SVGID_129_);}
	.st132{opacity:0.25;fill:url(#SVGID_130_);}
	.st133{fill:none;stroke:#606060;stroke-miterlimit:10;}
	.st134{opacity:0.25;fill:url(#SVGID_131_);}
	.st135{opacity:0.25;fill:url(#SVGID_132_);}
	.st136{fill:url(#SVGID_133_);}
	.st137{fill:url(#SVGID_134_);}
	.st138{fill:url(#SVGID_135_);}
	.st139{fill:url(#SVGID_136_);}
	.st140{opacity:0.25;fill:url(#SVGID_137_);}
	.st141{opacity:0.25;fill:url(#SVGID_138_);}
	.st142{opacity:0.25;fill:url(#SVGID_139_);}
	.st143{opacity:0.25;fill:url(#SVGID_140_);}
	.st144{fill:url(#SVGID_141_);}
	.st145{fill:url(#SVGID_142_);}
	.st146{fill:url(#SVGID_143_);}
	.st147{fill:url(#SVGID_144_);}
	.st148{opacity:0.25;fill:url(#SVGID_145_);}
	.st149{opacity:0.25;fill:url(#SVGID_146_);}
	.st150{fill:url(#SVGID_147_);}
	.st151{fill:url(#SVGID_148_);}
	.st152{opacity:0.25;fill:url(#SVGID_149_);}
	.st153{opacity:0.25;fill:url(#SVGID_150_);}
	.st154{fill:url(#SVGID_151_);}
	.st155{fill:url(#SVGID_152_);}
	.st156{fill:url(#SVGID_153_);}
	.st157{fill:url(#SVGID_154_);}
	.st158{opacity:0.25;fill:url(#SVGID_155_);}
	.st159{opacity:0.25;fill:url(#SVGID_156_);}
	.st160{fill:url(#SVGID_157_);}
	.st161{fill:url(#SVGID_158_);}
	.st162{fill:url(#SVGID_159_);}
	.st163{fill:url(#SVGID_160_);}
	.st164{fill:url(#SVGID_161_);}
	.st165{fill:url(#SVGID_162_);}
	.st166{fill:url(#SVGID_163_);}
	.st167{fill:url(#SVGID_164_);}
	.st168{fill:url(#SVGID_165_);}
	.st169{fill:url(#SVGID_166_);}
	.st170{fill:url(#SVGID_167_);}
	.st171{opacity:0.3;fill:url(#SVGID_168_);}
	.st172{opacity:0.3;fill:url(#SVGID_169_);}
	.st173{opacity:0.3;}
	.st174{fill:url(#SVGID_170_);}
	.st175{fill:url(#SVGID_171_);}
	.st176{fill:url(#SVGID_172_);}
	.st177{fill:url(#SVGID_173_);}
	.st178{opacity:0.3;fill:url(#SVGID_174_);}
	.st179{opacity:0.3;fill:url(#SVGID_175_);}
	.st180{opacity:0.3;fill:url(#SVGID_176_);}
	.st181{opacity:0.3;fill:url(#SVGID_177_);}
	.st182{fill:url(#SVGID_178_);}
	.st183{fill:url(#SVGID_179_);}
	.st184{fill:url(#SVGID_180_);}
	.st185{fill:url(#SVGID_181_);}
	.st186{opacity:0.3;fill:url(#SVGID_182_);}
	.st187{opacity:0.3;fill:url(#SVGID_183_);}
	.st188{fill:url(#SVGID_184_);}
	.st189{fill:url(#SVGID_185_);}
	.st190{fill:url(#SVGID_186_);}
	.st191{fill:url(#SVGID_187_);}
	.st192{fill:url(#SVGID_188_);}
	.st193{fill:url(#SVGID_189_);}
	.st194{fill:url(#SVGID_190_);}
	.st195{fill:url(#SVGID_191_);}
	.st196{fill:url(#SVGID_192_);}
	.st197{fill:url(#SVGID_193_);}
	.st198{fill:url(#SVGID_194_);}
	.st199{fill:url(#SVGID_195_);}
	.st200{fill:url(#SVGID_196_);}
</style>
<rect x="0" y="0" class="st0" width="999.97" height="999.97"/>
<g>
	<g>
		<linearGradient id="SVGID_1_" gradientUnits="userSpaceOnUse" x1="149.6392" y1="417.7643" x2="309.0004" y2="577.1255">
			<stop  offset="0" style="stop-color:#00B9FF"/>
			<stop  offset="1" style="stop-color:#00C29E"/>
		</linearGradient>
		<path class="st1" d="M293.05,565.81c-11,0-21.93-2.88-32.48-8.55c-11.78-6.34-63.56-33.69-64.08-33.97
			c-21.18-11.23-45.03-17.16-68.99-17.16H83.51v-22.24h43.99c27.58,0,55.03,6.83,79.4,19.74c0.51,0.27,52.36,27.66,64.21,34.04
			c7.27,3.91,14.66,5.9,21.95,5.9c24.09,0,43.69-19.6,43.69-43.69s-19.6-43.69-43.69-43.69c-15.95,0-30.4,8.27-37.7,21.58
			c-4.65,8.48-10.08,18.46-15,27.52l-19.55-10.61c4.93-9.09,10.38-19.11,15.04-27.61c11.21-20.44,33.12-33.13,57.2-33.13
			c36.36,0,65.93,29.58,65.93,65.93S329.4,565.81,293.05,565.81z"/>
	</g>
	<linearGradient id="SVGID_2_" gradientUnits="userSpaceOnUse" x1="152.1597" y1="422.8463" x2="311.5225" y2="582.2091">
		<stop  offset="0" style="stop-color:#00B9FF"/>
		<stop  offset="1" style="stop-color:#00C29E"/>
	</linearGradient>
	<path class="st2" d="M168.11,566.03c-36.36,0-65.93-29.58-65.93-65.93s29.58-65.93,65.93-65.93c11.01,0,21.94,2.88,32.48,8.55
		c11.78,6.34,63.56,33.69,64.08,33.97c21.18,11.23,45.03,17.16,68.99,17.16h43.99v22.24h-43.99c-27.58,0-55.03-6.83-79.4-19.74
		c-0.51-0.27-52.36-27.66-64.21-34.04c-7.27-3.91-14.66-5.89-21.95-5.89c-24.09,0-43.69,19.6-43.69,43.69s19.6,43.69,43.69,43.69
		c15.96,0,30.4-8.27,37.7-21.58c4.65-8.47,10.08-18.46,14.99-27.52l19.56,10.6c-4.93,9.09-10.38,19.11-15.04,27.61
		C214.11,553.34,192.19,566.03,168.11,566.03z"/>
	<linearGradient id="SVGID_3_" gradientUnits="userSpaceOnUse" x1="318.7319" y1="504.7107" x2="336.7871" y2="504.7107">
		<stop  offset="0" style="stop-color:#FFFFFF;stop-opacity:0"/>
		<stop  offset="1" style="stop-color:#000000"/>
	</linearGradient>
	<path style="opacity:0.25;fill:url(#SVGID_3_);" d="M336.32,493.84h-2.61c-3.78,0-7.56-0.2-11.33-0.49
		c0.47,2.11,0.76,4.28,0.76,6.53c0,5.67-1.67,10.92-4.41,15.45c4.95,0.44,9.92,0.74,14.91,0.75c2.01-5.02,3.15-10.48,3.15-16.2
		C336.79,497.82,336.6,495.82,336.32,493.84z"/>
	<linearGradient id="SVGID_4_" gradientUnits="userSpaceOnUse" x1="356.9323" y1="504.9589" x2="372.6751" y2="504.9589">
		<stop  offset="0" style="stop-color:#000000"/>
		<stop  offset="1" style="stop-color:#FFFFFF;stop-opacity:0"/>
	</linearGradient>
	<path class="st4" d="M372.68,499.88c0-2.04-0.15-4.04-0.31-6.04h-13.64c0.18,1.99,0.31,4,0.31,6.04c0,5.6-0.78,11.01-2.1,16.2
		h14.08C372.09,510.85,372.68,505.43,372.68,499.88z"/>
	<g class="st6">
		
			<linearGradient id="SVGID_5_" gradientUnits="userSpaceOnUse" x1="1971.9036" y1="487.9862" x2="1971.9036" y2="474.2898" gradientTransform="matrix(-1 0 0 -1 2087.7383 994.1216)">
			<stop  offset="0" style="stop-color:#000000"/>
			<stop  offset="1" style="stop-color:#FFFFFF;stop-opacity:0"/>
		</linearGradient>
		<path style="fill:url(#SVGID_5_);" d="M102.48,506.14c0.43,4.7,1.33,9.28,2.7,13.64h22.31c0.56,0,1.13,0.04,1.69,0.05
			c-2.15-4.22-3.61-8.84-4.3-13.7H102.48z"/>
		
			<linearGradient id="SVGID_6_" gradientUnits="userSpaceOnUse" x1="1967.5809" y1="523.8701" x2="1967.5809" y2="510.2274" gradientTransform="matrix(-1 0 0 -1 2087.7383 994.1216)">
			<stop  offset="0" style="stop-color:#FFFFFF;stop-opacity:0"/>
			<stop  offset="1" style="stop-color:#000000"/>
		</linearGradient>
		<path class="st7" d="M127.5,483.89c0.02,0,0.04,0,0.07,0c2.01-4.97,4.9-9.5,8.49-13.38c-2.85-0.13-5.7-0.26-8.56-0.26h-18.1
			c-2.19,4.3-3.91,8.87-5.14,13.64H127.5z"/>
	</g>
	<g class="st6">
		<linearGradient id="SVGID_7_" gradientUnits="userSpaceOnUse" x1="250.58" y1="469.5433" x2="256.8362" y2="456.7162">
			<stop  offset="0" style="stop-color:#000000"/>
			<stop  offset="1" style="stop-color:#FFFFFF;stop-opacity:0"/>
		</linearGradient>
		<path class="st8" d="M258.26,473.29c2.9-3.89,6.48-7.2,10.53-9.86l-2.14-1.13c-4.31-2.28-11.39-6.02-19.22-10.17
			c-3.34,3.21-6.22,6.87-8.82,10.77C246.3,466.97,253.4,470.72,258.26,473.29z"/>
		<linearGradient id="SVGID_8_" gradientUnits="userSpaceOnUse" x1="231.004" y1="499.8685" x2="237.2979" y2="486.964">
			<stop  offset="0" style="stop-color:#FFFFFF;stop-opacity:0"/>
			<stop  offset="1" style="stop-color:#000000"/>
		</linearGradient>
		<path class="st9" d="M227.58,482.22c-2.19,4.03-4.4,8.09-6.51,11.99c7.58,4.01,14.67,7.76,19.66,10.4
			c2.12-3.9,4.32-7.96,6.52-11.99C242.27,489.99,235.2,486.26,227.58,482.22z"/>
	</g>
	<linearGradient id="SVGID_9_" gradientUnits="userSpaceOnUse" x1="227.8383" y1="527.2772" x2="240.4167" y2="533.9653">
		<stop  offset="0" style="stop-color:#000000"/>
		<stop  offset="1" style="stop-color:#FFFFFF;stop-opacity:0"/>
	</linearGradient>
	<path style="opacity:0.25;fill:url(#SVGID_9_);" d="M222.61,537.11c3.97,2.1,8.06,4.27,12.07,6.39c0.86-1.36,1.82-2.63,2.6-4.05
		c2.61-4.77,5.48-10.02,8.36-15.32c-3.99-2.12-8.09-4.28-12.06-6.38c-2.85,5.24-5.68,10.43-8.27,15.15
		C224.51,534.37,223.53,535.72,222.61,537.11z"/>
	<linearGradient id="SVGID_10_" gradientUnits="userSpaceOnUse" x1="195.7526" y1="510.4165" x2="208.6469" y2="517.2725">
		<stop  offset="0" style="stop-color:#FFFFFF;stop-opacity:0"/>
		<stop  offset="1" style="stop-color:#000000"/>
	</linearGradient>
	<path class="st11" d="M213.92,507.35c-4.21-2.23-6.92-3.66-7.03-3.72c-1.68-0.89-3.41-1.68-5.11-2.51
		c-2.74,5.03-5.45,9.99-7.93,14.52c-0.94,1.71-2.1,3.25-3.37,4.69c2.02,0.95,4.04,1.91,6.01,2.95c0.11,0.06,2.57,1.36,6.43,3.4
		c1.05-1.43,2.03-2.91,2.89-4.49C208.35,517.57,211.13,512.49,213.92,507.35z"/>
	<linearGradient id="SVGID_11_" gradientUnits="userSpaceOnUse" x1="135.5191" y1="439.4867" x2="294.8819" y2="598.8494">
		<stop  offset="0" style="stop-color:#00B9FF"/>
		<stop  offset="1" style="stop-color:#00C29E"/>
	</linearGradient>
	<path style="fill:url(#SVGID_11_);" d="M233.59,517.75c-7.62-4.04-14.69-7.77-19.66-10.4c-2.8,5.14-5.57,10.22-8.11,14.86
		c-0.86,1.57-1.84,3.06-2.89,4.49c4.87,2.57,11.98,6.33,19.69,10.42c0.92-1.39,1.9-2.73,2.71-4.21
		C227.9,528.18,230.74,522.99,233.59,517.75z"/>
	<linearGradient id="SVGID_12_" gradientUnits="userSpaceOnUse" x1="97.5088" y1="477.497" x2="256.8715" y2="636.8598">
		<stop  offset="0" style="stop-color:#00B9FF"/>
		<stop  offset="1" style="stop-color:#00C29E"/>
	</linearGradient>
	<path class="st13" d="M124.42,500.1c0-5.73,1.14-11.19,3.15-16.2c-0.02,0-0.05,0-0.07,0h-23.22c-1.32,5.2-2.1,10.6-2.1,16.2
		c0,2.04,0.12,4.05,0.31,6.04h22.4C124.61,504.16,124.42,502.15,124.42,500.1z"/>
	<linearGradient id="SVGID_13_" gradientUnits="userSpaceOnUse" x1="170.0822" y1="404.9236" x2="329.4449" y2="564.2864">
		<stop  offset="0" style="stop-color:#00B9FF"/>
		<stop  offset="1" style="stop-color:#00C29E"/>
	</linearGradient>
	<path class="st14" d="M227.58,482.22c7.62,4.04,14.69,7.77,19.66,10.4c2.8-5.14,5.57-10.22,8.11-14.86
		c0.86-1.57,1.84-3.06,2.89-4.49c-4.87-2.57-11.98-6.33-19.69-10.41c-0.92,1.39-1.9,2.73-2.71,4.21
		C233.26,471.79,230.43,476.98,227.58,482.22z"/>
	<linearGradient id="SVGID_14_" gradientUnits="userSpaceOnUse" x1="208.091" y1="366.9148" x2="367.4537" y2="526.2776">
		<stop  offset="0" style="stop-color:#00B9FF"/>
		<stop  offset="1" style="stop-color:#00C29E"/>
	</linearGradient>
	<path class="st15" d="M358.68,493.84h-22.4c0.28,1.98,0.47,3.98,0.47,6.04c0,5.73-1.14,11.19-3.15,16.2c0.02,0,0.05,0,0.07,0h23.22
		c1.32-5.2,2.1-10.6,2.1-16.2C358.98,497.84,358.86,495.83,358.68,493.84z"/>
</g>
<g>
	<g>
		<linearGradient id="SVGID_15_" gradientUnits="userSpaceOnUse" x1="426.9712" y1="539.8333" x2="738.657" y2="570.6464">
			<stop  offset="0" style="stop-color:#00B9FF"/>
			<stop  offset="1" style="stop-color:#00C29E"/>
		</linearGradient>
		<path class="st16" d="M428.45,528.8h5.14l6.46,20.09l6.66-20.17h4.03l6.65,20.17l6.46-20.09h5l-9.4,27.3h-4.15l-6.65-19.48
			L442,556.09h-4.11L428.45,528.8z"/>
		<linearGradient id="SVGID_16_" gradientUnits="userSpaceOnUse" x1="431.7133" y1="534.6692" x2="743.3992" y2="565.4822">
			<stop  offset="0" style="stop-color:#00B9FF"/>
			<stop  offset="1" style="stop-color:#00C29E"/>
		</linearGradient>
		<path class="st17" d="M499.31,528.8h20.09v4.26h-15.33v7.05h13.59v4.25h-13.59v7.28h15.53v4.26h-20.29V528.8z"/>
		<linearGradient id="SVGID_17_" gradientUnits="userSpaceOnUse" x1="436.3678" y1="530.3922" x2="748.0536" y2="561.2053">
			<stop  offset="0" style="stop-color:#00B9FF"/>
			<stop  offset="1" style="stop-color:#00C29E"/>
		</linearGradient>
		<path class="st18" d="M550.81,528.8h12.16c3.1,0,5.54,0.85,7.09,2.4c1.2,1.2,1.82,2.67,1.82,4.49v0.08c0,3.25-1.86,4.99-3.87,6.04
			c3.18,1.09,5.38,2.91,5.38,6.58v0.08c0,4.84-3.99,7.43-10.03,7.43h-12.54V528.8z M567.1,536.46c0-2.13-1.7-3.45-4.76-3.45h-6.85
			v7.2h6.5c3.06,0,5.11-1.2,5.11-3.68V536.46z M563.04,544.24h-7.54v7.43h7.9c3.25,0,5.23-1.28,5.23-3.72v-0.08
			C568.62,545.6,566.8,544.24,563.04,544.24z"/>
		<linearGradient id="SVGID_18_" gradientUnits="userSpaceOnUse" x1="439.7034" y1="525.1879" x2="751.3892" y2="556.0009">
			<stop  offset="0" style="stop-color:#00B9FF"/>
			<stop  offset="1" style="stop-color:#00C29E"/>
		</linearGradient>
		<path style="fill:url(#SVGID_18_);" d="M601.1,551.6l3.33-3.09c1.93,2.28,4.1,3.56,7.12,3.56c2.67,0,4.69-1.63,4.69-4.11v-0.08
			c0-2.67-2.44-4.18-6.23-4.18h-2.21l-0.77-2.98l7.32-7.78H602.6v-4.14h17.93v3.56l-7.55,7.75c4.11,0.5,7.98,2.59,7.98,7.59v0.08
			c0,4.99-3.83,8.59-9.49,8.59C606.75,556.36,603.38,554.39,601.1,551.6z"/>
		<linearGradient id="SVGID_19_" gradientUnits="userSpaceOnUse" x1="444.7172" y1="517.2758" x2="756.403" y2="548.0889">
			<stop  offset="0" style="stop-color:#00B9FF"/>
			<stop  offset="1" style="stop-color:#00C29E"/>
		</linearGradient>
		<path style="fill:url(#SVGID_19_);" d="M684.13,542.43v-0.08c0-7.63,5.89-14.02,14.21-14.02s14.13,6.31,14.13,13.93v0.09
			c0,7.62-5.89,14.01-14.21,14.01C689.94,556.36,684.13,550.05,684.13,542.43z M707.47,542.43v-0.08c0-5.27-3.83-9.64-9.21-9.64
			c-5.38,0-9.14,4.3-9.14,9.56v0.09c0,5.26,3.83,9.59,9.22,9.59C703.72,551.94,707.47,547.69,707.47,542.43z"/>
		<linearGradient id="SVGID_20_" gradientUnits="userSpaceOnUse" x1="449.4336" y1="512.3716" x2="761.1194" y2="543.1846">
			<stop  offset="0" style="stop-color:#00B9FF"/>
			<stop  offset="1" style="stop-color:#00C29E"/>
		</linearGradient>
		<path class="st21" d="M741.79,551.94l2.86-3.4c2.6,2.25,5.23,3.52,8.56,3.52c2.94,0,4.8-1.4,4.8-3.4v-0.08
			c0-1.94-1.08-2.98-6.11-4.15c-5.77-1.39-9.02-3.09-9.02-8.08v-0.08c0-4.65,3.87-7.86,9.25-7.86c3.94,0,7.08,1.2,9.83,3.4
			l-2.55,3.6c-2.44-1.82-4.88-2.79-7.36-2.79c-2.79,0-4.42,1.43-4.42,3.21v0.08c0,2.09,1.24,3.02,6.46,4.26
			c5.73,1.39,8.68,3.45,8.68,7.93v0.08c0,5.08-3.99,8.09-9.68,8.09C748.95,556.28,745.04,554.85,741.79,551.94z"/>
	</g>
	<g>
		<path class="st45" d="M539.83,509.25v-65.05h13.12v53.92h46.45v11.12H539.83z"/>
		<path class="st45" d="M654.58,470.46h39.52v10.5h-39.52v17.35h46.59v10.95h-59.71v-65.05h58.55v10.95h-45.43V470.46z"/>
		<path class="st45" d="M757.95,470.46h39.52v10.5h-39.52v17.35h46.58v10.95h-59.71v-65.05h58.55v10.95h-45.43V470.46z"/>
		<path class="st45" d="M910.48,455.42h-26.83v53.84h-13.08v-53.84h-26.83v-11.21h66.74V455.42z"/>
		<path class="st45" d="M498.42,504.32l-7.47-6.58c1.34-1.78,2.49-3.76,3.46-5.94c1.94-4.4,2.91-9.42,2.91-15.06
			c0-5.64-0.97-10.66-2.91-15.06c-1.95-4.4-4.65-7.99-8.12-10.77c-3.47-2.77-7.52-4.87-12.15-6.3c-4.63-1.42-9.71-2.14-15.26-2.14
			c-5.55,0-10.63,0.72-15.26,2.14c-4.63,1.43-8.68,3.52-12.15,6.3c-3.47,2.77-6.17,6.36-8.1,10.77c-1.93,4.41-2.89,9.43-2.89,15.06
			c0,5.64,0.96,10.66,2.89,15.06c1.93,4.41,4.63,7.99,8.1,10.77c3.47,2.78,7.52,4.87,12.15,6.3c4.63,1.43,9.71,2.14,15.26,2.14
			c5.54,0,10.63-0.71,15.26-2.14c3.14-0.96,5.92-2.36,8.53-3.95l8.63,7.55L498.42,504.32z M468.6,498.38
			c-2.92,0.96-6.16,1.45-9.72,1.45c-4.78,0-8.95-0.83-12.5-2.5c-3.56-1.66-6.38-4.25-8.45-7.76c-2.08-3.51-3.12-7.79-3.12-12.83
			c0-3.8,0.59-7.18,1.78-10.15c1.18-2.96,2.85-5.39,5-7.27s4.68-3.31,7.59-4.27c2.91-0.96,6.14-1.44,9.7-1.44
			c4.78,0,8.94,0.83,12.5,2.5c3.56,1.66,6.39,4.25,8.48,7.79c2.09,3.53,3.14,7.81,3.14,12.86c0,3.79-0.59,7.18-1.78,10.14
			c-0.23,0.57-0.56,1.02-0.82,1.55l-15.65-13.79l-7.26,8.24l15.47,13.53C471.61,497.19,470.17,497.86,468.6,498.38z"/>
	</g>
</g>
</svg>
